{"title":"Mad Max: Fury Road 2015 720p BluRay x264 BLOW DUAL KLZ","uid":12243617,"size":5038563704,"categoryP":"video","categoryS":"hd___movies","magnet":"?xt=urn:btih:3499140a7688d28f9d141a84fd1502986e02cab8&amp;dn=Mad+Max%3A+Fury+Road+2015+720p+BluRay+x264+BLOW+DUAL+KLZ&amp;tr=udp%3A%2F%2Ftracker.openbittorrent.com%3A80&amp;tr=udp%3A%2F%2Fopen.demonii.com%3A1337&amp;tr=udp%3A%2F%2Ftracker.coppersurfer.tk%3A6969&amp;tr=udp%3A%2F%2Fexodus.desync.com%3A6969","seeders":2,"leechers":1,"uploader":"Alemao99","files":5,"time":1439837854,"description":"Haunted by his turbulent, Mad Max believes that the best way to survive is not to depend on anyone else besides himself. Still, eventually joining a group of rebels who cross the Wasteland, a war machine led by an elite Empress, angry. This bunch is on the run from a Citadel bullied by Immortan Joe, whom something irreplaceable was stolen. Exasperated with their loss, the Warlord gathers his lethal gang and begins a ruthless persecution of the rebels and the most relentless war on the Road ever.\n\nTitle in Brazil: Mad Max - Road Rage\nOriginal Title: Mad Max: Fury Road\nRelease Date: 2015\nGenre: Action / Adventure\nDuration: 120 minutes\nDirected by George Miller\nIMDb: http://www.imdb.com/title/tt1392190/\n\nSize: 4.69 GB\nExtension Archive: .MKV\nVideo Quality: Blu-Ray\nVideo codec: H.264 / AVC\nAudio codec: AC3 5.1\nResolution: 1280 x 536\nAudio: Portuguese / English\nSubtitles: Portuguese\n\nMovie name                               : Mad.Max.Estrada.da.Furia.2015.720p.BluRay.x264-BLOW.DUAL-KALAZANS\nEncoded date                             : UTC 2015-08-13 20:56:19\nWriting application                      : mkvmerge v8.2.0 ('World of Adventure') 64bit\nWriting library                          : libebml v1.3.1 + libmatroska v1.4.2\nDURATION                                 : 02:00:22.144000000\nNUMBER_OF_FRAMES                         : 225692\nNUMBER_OF_BYTES                          : 346662912\n_STATISTICS_WRITING_APP                  : mkvmerge v8.2.0 ('World of Adventure') 64bit\n_STATISTICS_WRITING_DATE_UTC             : 2015-08-13 20:56:19\n_STATISTICS_TAGS                         : BPS DURATION NUMBER_OF_FRAMES NUMBER_OF_BYTES\n\nVideo\nID                                       : 1\nFormat                                   : AVC\nFormat/Info                              : Advanced Video Codec\nFormat profile                           : &lt;a class=&quot;__cf_email__&quot; href=&quot;/cdn-cgi/l/email-protection&quot; data-cfemail=&quot;367e5f515e767a021807&quot;&gt;[email&amp;#160;protected]&lt;/a&gt;&lt;script data-cfhash='f9e31' type=&quot;text/javascript&quot;&gt;\n/* &lt;![CDATA[ */!function(){try{var t=&quot;currentScript&quot;in document?document.currentScript:function(){for(var t=document.getElementsByTagName(&quot;script&quot;),e=t.length;e--;)if(t[e].getAttribute(&quot;data-cfhash&quot;))return t[e]}();if(t&amp;&amp;t.previousSibling){var e,r,n,i,c=t.previousSibling,a=c.getAttribute(&quot;data-cfemail&quot;);if(a){for(e=&quot;&quot;,r=parseInt(a.substr(0,2),16),n=2;a.length-n;n+=2)i=parseInt(a.substr(n,2),16)^r,e+=String.fromCharCode(i);e=document.createTextNode(e),c.parentNode.replaceChild(e,c)}t.parentNode.removeChild(t);}}catch(u){}}()/* ]]&gt; */&lt;/script&gt;\nFormat settings, CABAC                   : Yes\nFormat settings, ReFrames                : 5 frames\nCodec ID                                 : V_MPEG4/ISO/AVC\nDuration                                 : 2h 0mn\nBit rate                                 : 4 556 Kbps\nWidth                                    : 1 280 pixels\nHeight                                   : 536 pixels\nDisplay aspect ratio                     : 2.40:1\nFrame rate                               : 23.976 fps\nColor space                              : YUV\nChroma subsampling                       : 4:2:0\nBit depth                                : 8 bits\nScan type                                : Progressive\nBits/(Pixel*Frame)                       : 0.277\nStream size                              : 3.74 GiB (80%)\nTitle                                    : Mad.Max.Estrada.da.Furia.2015.720p.BluRay.x264-BLOW.DUAL-KALAZANS\nWriting library                          : x264 core 148 r2579 73ae2d1\nEncoding settings                        : cabac=1 / ref=5 / deblock=1:0:0 / analyse=0x3:0x113 / me=umh / subme=8 / psy=1 / psy_rd=1.00:0.00 / mixed_ref=1 / me_range=16 / chroma_me=1 / trellis=1 / 8x8dct=1 / cqm=0 / deadzone=21,11 / fast_pskip=1 / chroma_qp_offset=-2 / threads=9 / lookahead_threads=1 / sliced_threads=0 / nr=0 / decimate=1 / interlaced=0 / bluray_compat=0 / constrained_intra=0 / bframes=3 / b_pyramid=2 / b_adapt=2 / b_bias=0 / direct=3 / weightb=1 / open_gop=0 / weightp=2 / keyint=250 / keyint_min=23 / scenecut=40 / intra_refresh=0 / rc_lookahead=50 / rc=2pass / mbtree=1 / bitrate=4556 / ratetol=1.0 / qcomp=0.60 / qpmin=0 / qpmax=69 / qpstep=4 / cplxblur=20.0 / qblur=0.5 / ip_ratio=1.40 / aq=1:1.00\nLanguage                                 : English\nDefault                                  : Yes\nForced                                   : No\nDURATION                                 : 02:00:23.383000000\nNUMBER_OF_FRAMES                         : 173188\nNUMBER_OF_BYTES                          : 4112014313\n_STATISTICS_WRITING_APP                  : mkvmerge v8.2.0 ('World of Adventure') 64bit\n_STATISTICS_WRITING_DATE_UTC             : 2015-08-13 20:56:19\n_STATISTICS_TAGS                         : BPS DURATION NUMBER_OF_FRAMES NUMBER_OF_BYTES\n\nAudio #1\nID                                       : 2\nFormat                                   : AC-3\nFormat/Info                              : Audio Coding 3\nMode extension                           : CM (complete main)\nFormat settings, Endianness              : Big\nCodec ID                                 : A_AC3\nDuration                                 : 2h 0mn\nBit rate mode                            : Constant\nBit rate                                 : 384 Kbps\nChannel(s)                               : 6 channels\nChannel positions                        : Front: L C R, Side: L R, LFE\nSampling rate                            : 48.0 KHz\nBit depth                                : 16 bits\nCompression mode                         : Lossy\nStream size                              : 331 MiB (7%)\nTitle                                    : AC3 5.1 - KALAZANS\nLanguage                                 : Portuguese\nDefault                                  : Yes\nForced                                   : Yes\n\nAudio #2\nID                                       : 3\nFormat                                   : AC-3\nFormat/Info                              : Audio Coding 3\nMode extension                           : CM (complete main)\nFormat settings, Endianness              : Big\nCodec ID                                 : A_AC3\nDuration                                 : 2h 0mn\nBit rate mode                            : Constant\nBit rate                                 : 640 Kbps\nChannel(s)                               : 6 channels\nChannel positions                        : Front: L C R, Side: L R, LFE\nSampling rate                            : 48.0 KHz\nBit depth                                : 16 bits\nCompression mode                         : Lossy\nStream size                              : 551 MiB (11%)\nTitle                                    : English\nLanguage                                 : English\nDefault                                  : No\nForced                                   : No\n\n\n\nSEED PLEASE\n\nENJOY","torrent":{"xt":"urn:btih:3499140a7688d28f9d141a84fd1502986e02cab8","amp;dn":"Mad+Max%3A+Fury+Road+2015+720p+BluRay+x264+BLOW+DUAL+KLZ","amp;tr":["udp%3A%2F%2Ftracker.openbittorrent.com%3A80","udp%3A%2F%2Fopen.demonii.com%3A1337","udp%3A%2F%2Ftracker.coppersurfer.tk%3A6969","udp%3A%2F%2Fexodus.desync.com%3A6969"],"infoHash":"3499140a7688d28f9d141a84fd1502986e02cab8","infoHashBuffer":{"type":"Buffer","data":[52,153,20,10,118,136,210,143,157,20,26,132,253,21,2,152,110,2,202,184]},"announce":[],"urlList":[]}}